<svg xmlns="http://www.w3.org/2000/svg" width="24" height="24" viewBox="0 0 24 24"><path id="icon" d="M6,10.144l3.27,2.836l-0.2,0.86l1.007-0.086l0.261-1.127L8.346,10.9l2.628-0.222L12,8.254l1.025,2.424l1.572,0.133 l0.391-0.922l-1.301-0.11L12,5.8l-1.686,3.978L6,10.144z M8.292,17.2l1.401-0.846L8.69,15.483L8.292,17.2z M18,10.144l-0.912-0.078 l0.27,0.634L18,10.144z M14,6.344l-0.473-0.04l0.14,0.329L14,6.344z M6.313,8.937l0.025-0.108L4.346,7.1l2.628-0.222L8,4.454 l1.026,2.424l1.162,0.098l0.391-0.922L9.687,5.978L8,2L6.314,5.978L2,6.344L5.106,9.04L6.313,8.937z M4.292,13.4l2.082-1.257 l-1.491-1.292L4.292,13.4z M18.725,17.781L19.708,22L16,19.762L12.292,22l0.978-4.219L10,14.943l4.314-0.365L16,10.6l1.688,3.977 L22,14.943L18.725,17.781z M18.256,19.998l-0.594-2.566l1.992-1.729l-2.629-0.225L16,13.055l-1.025,2.422L12.346,15.7l1.992,1.728 l-0.594,2.568L16,18.634L18.256,19.998z"/></svg>