<svg xmlns="http://www.w3.org/2000/svg" width="24" height="24" viewBox="0 0 24 24"><path id="icon" d="M18.725,17.781L19.708,22L16,19.762L12.292,22l0.978-4.219L10,14.943l4.314-0.371L16,10.6l1.688,3.97L22,14.943 L18.725,17.781z M6,10.144l3.27,2.836l-0.2,0.86l4.402-0.375l1.518-3.582l-1.303-0.112L12,5.8l-1.686,3.972L6,10.144z M18,10.144 l-0.912-0.079l0.27,0.635L18,10.144z M8.292,17.2l1.401-0.846L8.69,15.483L8.292,17.2z M14,6.344l-0.473-0.041l0.14,0.33L14,6.344z M9.47,8.668l1.11-2.619L9.687,5.972L8,2L6.314,5.972L2,6.344L5.106,9.04L9.47,8.668z M4.292,13.4l2.082-1.257l-1.491-1.292 L4.292,13.4z"/></svg>