<?xml version="1.0" encoding="utf-8"?>
<!-- Generator: Adobe Illustrator 16.0.0, SVG Export Plug-In . SVG Version: 6.00 Build 0)  -->
<!DOCTYPE svg PUBLIC "-//W3C//DTD SVG 1.1//EN" "http://www.w3.org/Graphics/SVG/1.1/DTD/svg11.dtd">
<svg version="1.1" id="Layer_1" xmlns="http://www.w3.org/2000/svg" xmlns:xlink="http://www.w3.org/1999/xlink" x="0px" y="0px"
	 width="379.694px" height="453.979px" viewBox="109.495 141.606 379.694 453.979"
	 enable-background="new 109.495 141.606 379.694 453.979" xml:space="preserve">
<g>
	<path fill="#FFFFFF" stroke="#666666" d="M306.936,591.094l171.715-46.011l-7.805-29.129l-0.563-2.198l-0.51-2.21l-0.459-2.222
		l-0.408-2.232l-0.355-2.243l-0.304-2.252l-0.252-2.258l-0.2-2.266l-0.146-2.271l-0.095-2.275l-0.043-2.278l0.01-2.281l0.062-2.282
		l0.114-2.283l0.168-2.283l0.219-2.281l0.271-2.277l0.323-2.275l0.375-2.27l0.427-2.264l0.479-2.258l0.531-2.249l0.58-2.24
		l0.631-2.23l0.683-2.219l0.731-2.208l0.783-2.195l0.832-2.182l0.88-2.167l0.956-2.348l0.905-2.364l0.852-2.378l0.801-2.393
		l0.747-2.405l0.696-2.417l0.641-2.426l0.589-2.437l0.534-2.445l0.48-2.452l0.428-2.459l0.37-2.465l0.319-2.469l0.263-2.472
		l0.209-2.474l0.152-2.475l0.1-2.477l0.043-2.475l-0.011-2.472l-0.066-2.47l-0.119-2.467l-0.176-2.459l-0.231-2.456l-0.285-2.447
		l-0.34-2.438l-0.395-2.43l-0.449-2.421l-0.502-2.407l-0.556-2.397l-0.61-2.383l-36.32-135.548l-0.336-1.154l-0.387-1.136
		l-0.437-1.119l-0.485-1.101l-0.534-1.079l-0.58-1.057l-0.63-1.033l-0.672-1.005l-0.718-0.979l-0.762-0.947l-0.803-0.919
		l-0.844-0.885l-0.884-0.852l-0.92-0.818l-0.959-0.779l-0.991-0.742l-1.024-0.703l-1.058-0.665l-1.088-0.622l-1.114-0.581
		l-1.143-0.536l-1.166-0.493l-1.188-0.448l-1.209-0.403l-1.228-0.355l-1.244-0.311l-1.259-0.261l-1.271-0.215l-1.283-0.166
		l-1.291-0.119l-1.297-0.069l-1.301-0.021l-1.305,0.027l-1.302,0.076l-1.303,0.126l-1.298,0.173l-1.291,0.22l-1.283,0.269
		l-1.272,0.315l-1.26,0.363l-1.245,0.409l-1.228,0.455l-1.21,0.499l-1.191,0.542l-1.166,0.586l-1.144,0.628l-1.117,0.668
		l-1.087,0.708l-1.06,0.749l-1.028,0.785l-0.993,0.822l-0.959,0.855l-0.924,0.891l-0.884,0.921l-0.847,0.954l-0.805,0.982
		l-0.765,1.009l-0.72,1.036l-0.676,1.061l-0.632,1.082l-0.582,1.104l-0.537,1.121l-0.488,1.139l-0.438,1.153l-0.391,1.169
		l-0.338,1.179l-0.288,1.188l-0.236,1.198l-0.185,1.201l-0.132,1.207l-0.081,1.208l-0.026,1.208l0.023,1.206l0.077,1.201
		l0.132,1.196l0.181,1.188l0.232,1.177l0.285,1.167l-6.597-24.619l-0.336-1.156l-0.389-1.141l-0.438-1.123l-0.486-1.104
		l-0.535-1.084l-0.585-1.059l-0.63-1.036l-0.677-1.01l-0.72-0.981l-0.762-0.954l-0.808-0.92l-0.847-0.888l-0.886-0.855l-0.924-0.819
		l-0.961-0.784l-0.997-0.744l-1.029-0.707l-1.061-0.666l-1.091-0.625l-1.12-0.582l-1.146-0.537l-1.17-0.496l-1.191-0.449
		l-1.215-0.404l-1.231-0.357l-1.249-0.311l-1.265-0.263l-1.277-0.215l-1.287-0.167l-1.294-0.118l-1.302-0.07l-1.307-0.021
		l-1.309,0.027l-1.308,0.076l-1.307,0.126l-1.303,0.173l-1.294,0.221l-1.29,0.27l-1.276,0.319l-1.264,0.362l-1.25,0.411
		l-1.233,0.456l-1.215,0.501l-1.194,0.544l-1.171,0.588l-1.147,0.631l-1.12,0.671l-1.093,0.711l-1.062,0.75l-1.032,0.789
		l-0.998,0.825l-0.963,0.86l-0.926,0.894l-0.887,0.925l-0.851,0.957l-0.81,0.986l-0.765,1.014l-0.724,1.038l-0.678,1.064
		l-0.632,1.086l-0.586,1.107l-0.539,1.126l-0.489,1.143l-0.44,1.159l-0.392,1.172l-0.339,1.183l-0.289,1.192l-0.239,1.201
		l-0.185,1.208l-0.132,1.209l-0.082,1.213l-0.027,1.212l0.024,1.209l0.079,1.207l0.131,1.2l0.183,1.191l0.233,1.182l0.285,1.17
		l-2.952-11.018l-0.336-1.156l-0.389-1.141l-0.438-1.124l-0.487-1.105l-0.536-1.082l-0.584-1.06l-0.63-1.036l-0.675-1.01
		l-0.721-0.982l-0.764-0.952l-0.805-0.922l-0.847-0.889l-0.887-0.855l-0.924-0.82l-0.962-0.781l-0.995-0.746l-1.03-0.706
		l-1.06-0.667l-1.091-0.625l-1.119-0.581l-1.146-0.539l-1.17-0.495l-1.194-0.45l-1.212-0.404l-1.233-0.357l-1.249-0.31l-1.263-0.263
		l-1.276-0.216l-1.286-0.166l-1.296-0.119l-1.302-0.07l-1.307-0.021l-1.307,0.028l-1.309,0.076l-1.306,0.125l-1.303,0.173
		l-1.296,0.222l-1.287,0.27l-1.276,0.317l-1.265,0.364l-1.25,0.41l-1.233,0.456l-1.215,0.501l-1.193,0.544l-1.172,0.588
		l-1.146,0.629l-1.122,0.672l-1.092,0.712l-1.063,0.751l-1.031,0.788l-0.997,0.825l-0.963,0.859l-0.926,0.893l-0.889,0.926
		l-0.849,0.957l-0.808,0.986l-0.766,1.014l-0.723,1.039l-0.679,1.063l-0.633,1.086l-0.586,1.107l-0.538,1.126l-0.49,1.143
		l-0.441,1.158l-0.391,1.172l-0.34,1.184l-0.289,1.193l-0.238,1.201l-0.184,1.207l-0.133,1.21l-0.081,1.212l-0.028,1.213l0.025,1.21
		l0.077,1.205l0.131,1.201l0.182,1.191l0.234,1.183l0.287,1.169l-23.989-89.529l-0.336-1.151l-0.387-1.137l-0.437-1.12l-0.485-1.101
		l-0.534-1.079l-0.582-1.056l-0.628-1.033l-0.673-1.005l-0.718-0.978l-0.761-0.949l-0.803-0.919l-0.844-0.885l-0.884-0.852
		l-0.92-0.817l-0.958-0.78l-0.992-0.743l-1.025-0.703l-1.057-0.664l-1.087-0.622l-1.115-0.58l-1.142-0.538l-1.166-0.492
		l-1.188-0.448l-1.209-0.404l-1.228-0.355l-1.245-0.31l-1.259-0.262l-1.272-0.215l-1.282-0.166l-1.291-0.118l-1.297-0.07
		l-1.302-0.021l-1.304,0.028l-1.303,0.076l-1.302,0.125l-1.296,0.173l-1.292,0.22l-1.283,0.269l-1.271,0.315l-1.26,0.363
		l-1.246,0.409l-1.228,0.455l-1.21,0.498l-1.19,0.543l-1.167,0.586l-1.144,0.628l-1.116,0.669l-1.088,0.708l-1.059,0.748
		l-1.027,0.785l-0.995,0.822l-0.959,0.856l-0.922,0.891l-0.886,0.922l-0.846,0.954l-0.805,0.982l-0.764,1.009l-0.72,1.036
		l-0.675,1.06l-0.63,1.082l-0.584,1.104l-0.537,1.122l-0.488,1.139l-0.439,1.155l-0.39,1.167l-0.339,1.179l-0.288,1.188
		l-0.236,1.197l-0.185,1.203l-0.132,1.206l-0.081,1.208l-0.027,1.208l0.025,1.206l0.076,1.201l0.13,1.196l0.181,1.188l0.234,1.178
		l0.285,1.165l46.011,171.714l-1.131-1.267l-1.173-1.235l-1.213-1.199l-1.253-1.165l-1.292-1.128l-1.329-1.089l-1.365-1.053
		l-1.399-1.013l-1.434-0.972l-1.466-0.932l-1.497-0.889l-1.527-0.847l-1.554-0.803l-1.582-0.759l-1.608-0.714l-1.632-0.668
		l-1.656-0.623l-1.676-0.576l-1.697-0.528l-1.714-0.48l-1.731-0.435l-1.748-0.384l-1.76-0.336l-1.774-0.286l-1.783-0.238
		l-1.794-0.188l-1.801-0.139l-1.806-0.089l-1.811-0.039l-1.815,0.012l-1.814,0.061l-1.814,0.11l-1.814,0.16l-1.809,0.211
		l-1.804,0.258l-1.797,0.308l-1.789,0.358l-1.78,0.406l-1.768,0.455l-1.755,0.5l-1.74,0.549l-1.725,0.597l-1.706,0.643l-1.207,0.499
		l-1.186,0.542l-1.163,0.586l-1.139,0.625l-1.113,0.667l-1.086,0.706l-1.056,0.746l-1.024,0.783l-0.992,0.818l-0.958,0.853
		l-0.922,0.887l-0.884,0.918l-0.845,0.949l-0.805,0.978l-0.764,1.005l-0.722,1.031l-0.677,1.055l-0.632,1.077l-0.586,1.099
		l-0.539,1.117l-0.492,1.134l-0.443,1.149l-0.394,1.163l-0.344,1.175l-0.293,1.184l-0.243,1.192l-0.191,1.198l-0.14,1.202
		l-0.087,1.206l-0.037,1.204l0.016,1.203l0.068,1.198l0.119,1.194l0.172,1.185l0.223,1.176l0.275,1.167l0.323,1.151l0.375,1.137
		l0.424,1.12l0.474,1.102l0.521,1.081l0.568,1.059l0.615,1.036l0.659,1.009l0.705,0.982l0.748,0.955l0.788,0.923l0.831,0.892
		l0.87,0.86l0.907,0.825l0.943,0.789l0.98,0.752l1.012,0.714l1.044,0.674l1.074,0.633l1.103,0.594l1.129,0.549l1.154,0.507
		l1.177,0.462l1.199,0.417l1.217,0.372l1.234,0.326l1.25,0.279l1.264,0.232l1.274,0.185l1.284,0.137l1.292,0.089l1.46,0.1
		l1.452,0.148l1.443,0.2l1.432,0.25l1.419,0.3l1.403,0.349l1.385,0.399l1.366,0.446l1.345,0.494l1.321,0.54l1.298,0.588l1.271,0.634
		l1.242,0.677l1.211,0.722l1.18,0.764l1.146,0.806l1.11,0.846l1.075,0.886l1.036,0.922l0.996,0.96l0.956,0.996l0.913,1.028
		l0.87,1.062l0.825,1.094l0.778,1.123l0.731,1.149l0.684,1.178l0.634,1.201l0.584,1.226l0.534,1.245l0.482,1.268l0.43,1.283
		l0.376,1.299l3.063,11.432l0.71,2.546l0.762,2.531l0.814,2.516l0.864,2.499l0.915,2.482l0.966,2.462l1.017,2.444l1.067,2.424
		l1.116,2.403l1.165,2.381l1.214,2.358l1.262,2.336l1.31,2.312l1.358,2.287l1.403,2.259l1.452,2.233l1.497,2.208l1.542,2.178
		l1.587,2.149l1.631,2.121l1.675,2.089l1.719,2.059l1.761,2.027l1.803,1.994l1.845,1.961l1.886,1.928l1.925,1.892l1.964,1.858
		l2.004,1.821l2.041,1.784l2.08,1.748l2.116,1.711l2.151,1.672l2.187,1.634l2.221,1.594l2.254,1.554l2.287,1.512l2.32,1.473
		l2.351,1.431l2.381,1.388l2.41,1.346l2.439,1.304l2.467,1.26l2.493,1.214l2.52,1.171l2.546,1.127l2.569,1.08l2.592,1.037
		l2.616,0.988l1.57,0.605l1.547,0.651l1.521,0.697l1.495,0.743l1.467,0.786l1.437,0.831l1.406,0.873l1.374,0.915l1.341,0.956
		l1.305,0.996l1.267,1.036l1.231,1.072l1.192,1.11l1.151,1.146l1.11,1.18l1.068,1.215l1.025,1.245l0.98,1.278l0.935,1.308
		l0.889,1.336l0.842,1.362l0.793,1.39l0.746,1.413l0.694,1.436l0.646,1.458l0.594,1.479l0.542,1.497l0.491,1.515l0.438,1.529
		l7.805,29.129L306.936,591.094z"/>
	<path fill="none" stroke="#666666" stroke-width="9" stroke-linecap="round" stroke-linejoin="round" d="M475.604,450.806
		l0.956-2.35l0.905-2.363l0.853-2.378l0.801-2.393l0.747-2.405l0.695-2.416l0.641-2.427l0.589-2.437l0.534-2.446l0.48-2.452
		l0.428-2.458l0.37-2.465l0.319-2.469l0.263-2.472l0.209-2.474l0.153-2.475l0.1-2.477l0.042-2.475l-0.01-2.473l-0.067-2.468
		l-0.119-2.468l-0.176-2.459l-0.231-2.456l-0.284-2.447l-0.34-2.438l-0.395-2.43l-0.449-2.42l-0.503-2.408l-0.555-2.396l-0.61-2.383
		 M159.083,184.536l55.438,206.898 M221.973,167.685l48.083,179.447 M444.636,242.175l36.32,135.548 M375.148,234.401l21.141,78.898
		 M309.078,240.296l24.093,89.916 M180.758,436.113l-3.063-11.432 M299.131,561.957l7.805,29.129 M470.845,515.946l7.806,29.129
		 M221.971,167.677l-0.336-1.151l-0.387-1.137l-0.437-1.12l-0.485-1.1l-0.533-1.079l-0.582-1.056L218.583,160l-0.673-1.005
		l-0.717-0.978l-0.762-0.949l-0.803-0.919l-0.844-0.885l-0.884-0.852l-0.92-0.816l-0.958-0.78l-0.992-0.743l-1.025-0.703
		l-1.057-0.664l-1.087-0.622l-1.115-0.58l-1.142-0.537l-1.166-0.492l-1.188-0.448l-1.209-0.403l-1.228-0.355l-1.245-0.31
		l-1.259-0.262l-1.272-0.214l-1.282-0.166l-1.291-0.118l-1.297-0.07l-1.301-0.021l-1.304,0.028l-1.304,0.076l-1.302,0.125
		l-1.296,0.173l-1.292,0.221l-1.283,0.269l-1.272,0.315l-1.26,0.363l-1.246,0.409l-1.228,0.455l-1.211,0.499l-1.19,0.543
		l-1.167,0.585l-1.143,0.628l-1.116,0.669l-1.088,0.709l-1.059,0.748l-1.027,0.785l-0.994,0.822l-0.959,0.856l-0.923,0.89
		l-0.886,0.922l-0.846,0.954l-0.805,0.982l-0.763,1.009l-0.72,1.036l-0.676,1.06l-0.629,1.082l-0.584,1.104l-0.536,1.121
		l-0.488,1.14l-0.439,1.155l-0.389,1.167l-0.339,1.179l-0.288,1.188l-0.237,1.197l-0.184,1.203l-0.133,1.206l-0.081,1.208
		l-0.027,1.208l0.025,1.206l0.077,1.201l0.13,1.195l0.182,1.188l0.233,1.178l0.285,1.166 M268.031,528.895l-2.616-0.989
		l-2.593-1.036l-2.569-1.081l-2.546-1.126l-2.52-1.171l-2.493-1.215l-2.467-1.259l-2.439-1.304l-2.41-1.346l-2.381-1.389
		l-2.35-1.431l-2.319-1.471l-2.288-1.514l-2.254-1.554l-2.221-1.594l-2.187-1.632l-2.152-1.673l-2.115-1.711l-2.08-1.747
		l-2.041-1.785l-2.004-1.822l-1.965-1.857l-1.925-1.893l-1.886-1.927l-1.845-1.962l-1.803-1.994l-1.761-2.026l-1.719-2.06
		l-1.676-2.09l-1.631-2.119l-1.587-2.149l-1.542-2.18l-1.497-2.206l-1.451-2.233l-1.404-2.261l-1.358-2.287l-1.31-2.311
		l-1.262-2.336l-1.214-2.358l-1.165-2.381l-1.116-2.403l-1.067-2.424l-1.017-2.444l-0.966-2.463l-0.915-2.481l-0.864-2.499
		l-0.814-2.516l-0.762-2.53l-0.709-2.547 M134.958,340.791l-1.207,0.499l-1.186,0.542l-1.163,0.585l-1.139,0.626l-1.113,0.667
		l-1.085,0.707l-1.057,0.746l-1.024,0.782l-0.992,0.819l-0.958,0.853l-0.922,0.886l-0.884,0.918l-0.845,0.949l-0.805,0.978
		l-0.764,1.005l-0.722,1.031l-0.677,1.055l-0.632,1.077l-0.586,1.099l-0.539,1.116l-0.492,1.134l-0.442,1.15l-0.395,1.163
		l-0.344,1.174l-0.293,1.185l-0.243,1.192l-0.191,1.198l-0.139,1.202l-0.088,1.205l-0.036,1.205l0.016,1.202l0.068,1.199l0.12,1.194
		l0.172,1.186l0.223,1.176l0.274,1.166l0.324,1.151l0.375,1.137l0.423,1.12l0.474,1.102l0.521,1.08l0.568,1.06l0.615,1.035
		l0.659,1.01l0.705,0.982l0.748,0.955l0.789,0.923l0.831,0.892l0.869,0.859l0.907,0.826l0.944,0.789l0.979,0.752l1.012,0.714
		l1.044,0.674l1.075,0.634l1.102,0.593l1.13,0.549l1.155,0.507l1.177,0.462l1.198,0.417l1.218,0.372l1.234,0.326l1.25,0.279
		l1.263,0.232l1.275,0.185l1.284,0.138l1.291,0.088 M309.073,240.299l-0.335-1.157l-0.389-1.14l-0.438-1.124l-0.488-1.105
		l-0.535-1.083l-0.585-1.06l-0.63-1.036l-0.674-1.01l-0.721-0.981l-0.764-0.953l-0.805-0.922l-0.848-0.888l-0.887-0.855l-0.924-0.82
		l-0.961-0.782l-0.996-0.746l-1.029-0.706l-1.06-0.667l-1.092-0.624l-1.119-0.582l-1.145-0.539l-1.17-0.494l-1.193-0.45
		l-1.212-0.404l-1.233-0.357l-1.25-0.31l-1.264-0.263l-1.276-0.215l-1.285-0.167l-1.298-0.119l-1.301-0.07l-1.307-0.021
		l-1.307,0.028l-1.309,0.076l-1.306,0.125l-1.303,0.173l-1.295,0.222l-1.288,0.27l-1.277,0.316l-1.265,0.364l-1.25,0.41
		l-1.233,0.456l-1.215,0.501l-1.193,0.544l-1.172,0.588l-1.146,0.629l-1.122,0.671l-1.092,0.711l-1.063,0.751l-1.031,0.788
		l-0.998,0.824l-0.962,0.86l-0.927,0.893l-0.889,0.926l-0.849,0.956l-0.808,0.986l-0.766,1.013l-0.724,1.04l-0.679,1.063
		l-0.632,1.086l-0.586,1.107l-0.538,1.126l-0.49,1.144l-0.441,1.158l-0.391,1.172l-0.34,1.184l-0.289,1.193l-0.237,1.201
		l-0.185,1.207l-0.133,1.21l-0.081,1.212l-0.028,1.212l0.025,1.21l0.078,1.205l0.13,1.201l0.183,1.192l0.234,1.181l0.287,1.17
		 M312.025,251.317l-0.284-1.17l-0.234-1.183l-0.183-1.192l-0.13-1.2l-0.079-1.206l-0.024-1.21l0.027-1.211l0.082-1.213l0.132-1.21
		l0.185-1.207l0.239-1.201l0.288-1.193l0.34-1.183l0.391-1.172l0.441-1.159l0.489-1.143l0.539-1.126l0.586-1.107l0.632-1.086
		l0.678-1.064l0.723-1.039l0.766-1.013l0.81-0.986l0.851-0.957l0.887-0.926l0.926-0.893l0.963-0.86l0.998-0.824l1.032-0.789
		l1.062-0.75l1.093-0.711l1.12-0.671l1.147-0.631l1.171-0.588l1.194-0.545l1.215-0.5l1.233-0.456l1.25-0.411l1.264-0.363
		l1.276-0.318l1.289-0.27l1.295-0.222l1.302-0.174l1.308-0.125l1.308-0.076l1.309-0.027l1.307,0.021l1.302,0.07l1.295,0.118
		l1.286,0.167l1.277,0.215l1.265,0.263l1.249,0.31l1.231,0.358l1.215,0.404l1.191,0.449l1.169,0.495l1.146,0.539l1.12,0.582
		l1.091,0.625l1.061,0.666l1.028,0.706l0.998,0.745l0.961,0.783l0.924,0.82l0.886,0.854l0.847,0.889l0.807,0.921l0.763,0.953
		l0.72,0.982l0.677,1.01l0.63,1.036l0.583,1.06l0.536,1.083l0.487,1.104l0.438,1.124l0.389,1.141l0.337,1.156 M177.689,424.685
		l-0.377-1.3l-0.43-1.284l-0.481-1.266l-0.534-1.246l-0.584-1.226l-0.634-1.201l-0.684-1.177l-0.73-1.151l-0.778-1.121l-0.825-1.093
		l-0.869-1.063l-0.913-1.029l-0.956-0.995l-0.996-0.96l-1.036-0.923l-1.074-0.885l-1.111-0.846l-1.146-0.806l-1.18-0.764
		l-1.21-0.722l-1.242-0.678l-1.27-0.633l-1.298-0.588l-1.321-0.541l-1.345-0.493l-1.367-0.447l-1.385-0.398l-1.403-0.35
		l-1.418-0.299l-1.432-0.25l-1.443-0.2l-1.453-0.149l-1.459-0.099 M134.955,340.795l1.706-0.643l1.724-0.596l1.74-0.55l1.755-0.501
		l1.768-0.454l1.779-0.406l1.79-0.357l1.797-0.308l1.804-0.259l1.809-0.21l1.813-0.161l1.814-0.11l1.815-0.06l1.815-0.012
		l1.811,0.039l1.806,0.089l1.801,0.139l1.794,0.188l1.784,0.238l1.773,0.287l1.76,0.337l1.747,0.384l1.731,0.434l1.715,0.481
		l1.696,0.528l1.676,0.576l1.656,0.624l1.632,0.668l1.607,0.713l1.583,0.759l1.555,0.803l1.527,0.847l1.497,0.889l1.466,0.932
		l1.433,0.972l1.4,1.013l1.365,1.052l1.329,1.09l1.292,1.128l1.252,1.164l1.214,1.201l1.173,1.234l1.131,1.268 M299.125,561.956
		l-0.438-1.528l-0.49-1.515l-0.542-1.497l-0.594-1.478l-0.646-1.458l-0.695-1.437l-0.745-1.413l-0.793-1.389l-0.842-1.363
		l-0.889-1.336l-0.935-1.307l-0.981-1.278l-1.025-1.247l-1.068-1.214l-1.11-1.18l-1.152-1.147l-1.191-1.109l-1.231-1.073
		l-1.268-1.035l-1.304-0.995L279.843,535l-1.373-0.915l-1.406-0.873l-1.437-0.83l-1.466-0.787l-1.496-0.743l-1.521-0.697
		l-1.547-0.651l-1.57-0.605 M470.835,515.946l-0.563-2.197l-0.51-2.21l-0.459-2.223l-0.408-2.232l-0.354-2.243l-0.306-2.252
		l-0.251-2.258l-0.199-2.266l-0.147-2.271l-0.095-2.276l-0.043-2.278l0.01-2.281l0.062-2.282l0.115-2.283l0.167-2.283l0.219-2.281
		l0.271-2.277l0.323-2.274l0.374-2.271l0.428-2.264l0.479-2.257l0.531-2.25l0.58-2.239l0.632-2.231l0.681-2.22l0.733-2.207
		l0.782-2.195l0.832-2.182l0.879-2.166 M214.514,391.426l0.501,1.971l0.449,1.985l0.396,1.995l0.345,2.007l0.293,2.016l0.239,2.023
		l0.187,2.031l0.134,2.036l0.081,2.041l0.027,2.044l-0.025,2.046l-0.078,2.048l-0.132,2.047l-0.184,2.046l-0.237,2.044l-0.29,2.04
		l-0.295,2.069l-0.243,2.072l-0.191,2.076l-0.139,2.076l-0.087,2.078l-0.035,2.075l0.018,2.075l0.07,2.071l0.121,2.067l0.174,2.063
		l0.227,2.056l0.278,2.047l0.329,2.039 M381.731,259.02l-0.284-1.167l-0.233-1.178l-0.182-1.188l-0.131-1.195l-0.077-1.201
		l-0.023-1.206l0.026-1.208l0.081-1.208l0.133-1.207l0.185-1.202l0.236-1.197l0.287-1.188l0.338-1.179l0.392-1.169l0.438-1.153
		l0.489-1.14l0.536-1.122l0.583-1.103l0.63-1.082l0.678-1.06l0.72-1.036l0.764-1.009l0.806-0.982l0.845-0.954l0.885-0.922
		l0.924-0.891l0.959-0.856l0.993-0.822l1.027-0.785l1.061-0.748l1.087-0.708l1.117-0.669l1.143-0.628l1.168-0.586l1.189-0.542
		l1.21-0.499l1.229-0.454l1.245-0.409l1.26-0.363l1.272-0.315l1.283-0.269l1.291-0.221l1.298-0.174l1.302-0.125l1.304-0.076
		l1.304-0.028l1.301,0.021l1.297,0.069l1.291,0.118l1.283,0.166l1.272,0.214l1.259,0.262l1.243,0.311l1.229,0.355l1.208,0.403
		l1.189,0.448l1.165,0.492l1.143,0.537l1.114,0.581l1.088,0.622l1.057,0.664l1.025,0.703l0.992,0.743l0.958,0.779l0.921,0.818
		l0.883,0.852l0.843,0.885l0.804,0.918l0.763,0.948l0.717,0.979l0.672,1.006l0.63,1.032l0.581,1.056l0.534,1.079l0.484,1.1
		l0.437,1.12l0.387,1.137l0.337,1.152"/>
</g>
</svg>
